<svg xmlns="http://www.w3.org/2000/svg" xmlns:xlink="http://www.w3.org/1999/xlink" width="9000" zoomAndPan="magnify" viewBox="0 0 375 374.999991" height="9000" preserveAspectRatio="xMidYMid meet" version="1.0"><defs><g/><clipPath id="8c0e474775"><path d="M 13.0625 102 L 91 102 L 91 132 L 13.0625 132 Z M 13.0625 102 " clip-rule="nonzero"/></clipPath><clipPath id="f7c7431a9e"><path d="M 13.0625 86 L 206 86 L 206 267 L 13.0625 267 Z M 13.0625 86 " clip-rule="nonzero"/></clipPath><clipPath id="4fb02f83de"><path d="M 50.289062 165.445312 L 107.289062 165.445312 L 107.289062 222.445312 L 50.289062 222.445312 Z M 50.289062 165.445312 " clip-rule="nonzero"/></clipPath></defs><path fill="#0b74bb" d="M 78.242188 161.566406 C 73.046875 156.234375 63.394531 148.3125 51.558594 147.824219 C 41.976562 147.429688 32.449219 152.601562 27.292969 161.414062 C 33.769531 145.03125 45.585938 140.894531 55.300781 142.867188 C 66.464844 145.136719 76.105469 154.519531 78.242188 161.566406 " fill-opacity="1" fill-rule="nonzero"/><g clip-path="url(#8c0e474775)"><path fill="#0b74bb" d="M 90.585938 131.902344 C 82.6875 123.796875 68.015625 111.746094 50.019531 111.007812 C 35.453125 110.40625 20.960938 118.273438 13.125 131.671875 C 23.449219 106.96875 39.644531 100.46875 53.96875 102.75 C 71.605469 105.5625 87.371094 120.0625 90.585938 131.902344 " fill-opacity="1" fill-rule="nonzero"/></g><path fill="#0b74bb" d="M 127.988281 104.085938 C 110.246094 107.421875 97.804688 119.617188 90.585938 131.902344 C 98.484375 123.796875 113.15625 111.75 131.152344 111.007812 C 164.554688 109.628906 197.546875 152.769531 150.878906 205.007812 C 128.636719 229.90625 109.355469 255.96875 109.238281 266.960938 C 114.777344 252.183594 154.699219 218.683594 169.496094 197.03125 C 210.554688 136.929688 160.917969 97.898438 127.988281 104.085938 " fill-opacity="1" fill-rule="nonzero"/><g clip-path="url(#f7c7431a9e)"><path fill="#08b0f0" d="M 13.125 131.671875 C 15.703125 103.871094 38.957031 85.875 62.382812 86.839844 C 83.167969 87.695312 100.117188 101.609375 109.234375 110.972656 C 118.359375 101.609375 135.304688 87.695312 156.089844 86.839844 C 194.664062 85.25 232.773438 135.074219 178.871094 195.410156 C 145.898438 232.320312 123.957031 247.128906 109.234375 266.960938 C 111.550781 254.472656 150.859375 217.296875 165.652344 195.640625 C 205.542969 137.230469 161.125 99.148438 128.195312 105.335938 C 110.453125 108.667969 97.40625 122.726562 90.585938 131.902344 C 84.660156 114.816406 37.382812 79.054688 13.125 131.671875 " fill-opacity="1" fill-rule="nonzero"/></g><path fill="#0b74bb" d="M 102.742188 143.257812 C 91.042969 145.292969 82.65625 154.742188 78.242188 161.566406 C 83.433594 156.234375 93.085938 148.3125 104.921875 147.824219 C 126.890625 146.917969 148.59375 175.289062 117.894531 209.652344 C 103.269531 226.027344 90.585938 243.167969 90.507812 250.402344 C 94.089844 240.792969 119.296875 218.132812 129.023438 203.886719 C 155.265625 165.46875 125.917969 139.222656 102.742188 143.257812 " fill-opacity="1" fill-rule="nonzero"/><path fill="#08b0f0" d="M 27.292969 161.414062 C 28.988281 143.132812 44.28125 131.292969 59.691406 131.929688 C 73.363281 132.492188 84.507812 141.644531 90.507812 147.800781 C 96.507812 141.644531 107.652344 132.492188 121.324219 131.929688 C 146.695312 130.882812 171.761719 163.652344 136.308594 203.335938 C 114.621094 227.613281 100.191406 237.355469 90.507812 250.402344 C 92.027344 242.183594 117.882812 217.734375 127.613281 203.492188 C 153.851562 165.070312 124.636719 140.023438 102.976562 144.09375 C 91.308594 146.285156 82.726562 155.53125 78.242188 161.566406 C 74.34375 150.328125 43.246094 126.808594 27.292969 161.414062 " fill-opacity="1" fill-rule="nonzero"/><g clip-path="url(#4fb02f83de)"><path fill="#91c73a" d="M 107.082031 193.824219 C 107.082031 185.988281 103.90625 178.894531 98.769531 173.757812 C 93.636719 168.621094 86.539062 165.445312 78.703125 165.445312 C 70.867188 165.445312 63.769531 168.621094 58.632812 173.757812 C 53.5 178.894531 50.324219 185.988281 50.324219 193.824219 C 50.324219 201.660156 53.5 208.757812 58.632812 213.890625 C 63.769531 219.027344 70.867188 222.207031 78.703125 222.207031 C 86.539062 222.207031 93.636719 219.027344 98.769531 213.890625 C 103.90625 208.757812 107.082031 201.660156 107.082031 193.824219 " fill-opacity="1" fill-rule="evenodd"/></g><path fill="#ffffff" d="M 74.386719 212.691406 L 83.8125 212.691406 L 83.8125 198.933594 L 97.570312 198.933594 L 97.570312 188.714844 L 83.8125 188.714844 L 83.8125 174.957031 L 73.59375 174.957031 L 73.59375 188.714844 L 59.835938 188.714844 L 59.835938 198.933594 L 73.59375 198.933594 L 73.59375 212.691406 L 74.386719 212.691406 " fill-opacity="1" fill-rule="evenodd"/><g fill="#0b74bb" fill-opacity="1"><g transform="translate(163.872723, 239.287777)"><g><path d="M 16.8125 -10.09375 C 17.914062 -9.707031 18.78125 -9.101562 19.40625 -8.28125 C 20.03125 -7.457031 20.34375 -6.46875 20.34375 -5.3125 C 20.34375 -3.613281 19.660156 -2.300781 18.296875 -1.375 C 16.929688 -0.457031 14.960938 0 12.390625 0 L 1.9375 0 L 1.9375 -19.34375 L 11.828125 -19.34375 C 14.296875 -19.34375 16.175781 -18.882812 17.46875 -17.96875 C 18.757812 -17.0625 19.40625 -15.835938 19.40625 -14.296875 C 19.40625 -13.367188 19.175781 -12.539062 18.71875 -11.8125 C 18.269531 -11.082031 17.632812 -10.507812 16.8125 -10.09375 Z M 7.359375 -15.390625 L 7.359375 -11.671875 L 11.109375 -11.671875 C 12.953125 -11.671875 13.875 -12.296875 13.875 -13.546875 C 13.875 -14.773438 12.953125 -15.390625 11.109375 -15.390625 Z M 11.9375 -3.953125 C 13.851562 -3.953125 14.8125 -4.609375 14.8125 -5.921875 C 14.8125 -7.222656 13.851562 -7.875 11.9375 -7.875 L 7.359375 -7.875 L 7.359375 -3.953125 Z M 11.9375 -3.953125 "/></g></g></g><g fill="#0b74bb" fill-opacity="1"><g transform="translate(185.122374, 239.287777)"><g><path d="M 1.9375 -19.34375 L 7.40625 -19.34375 L 7.40625 -4.34375 L 16.640625 -4.34375 L 16.640625 0 L 1.9375 0 Z M 1.9375 -19.34375 "/></g></g></g><g fill="#0b74bb" fill-opacity="1"><g transform="translate(201.978399, 239.287777)"><g><path d="M 1.9375 -19.34375 L 7.40625 -19.34375 L 7.40625 0 L 1.9375 0 Z M 1.9375 -19.34375 "/></g></g></g><g fill="#0b74bb" fill-opacity="1"><g transform="translate(211.345925, 239.287777)"><g><path d="M 8.734375 0.390625 C 7.171875 0.390625 5.648438 0.195312 4.171875 -0.1875 C 2.703125 -0.582031 1.503906 -1.097656 0.578125 -1.734375 L 2.375 -5.78125 C 3.238281 -5.207031 4.242188 -4.742188 5.390625 -4.390625 C 6.535156 -4.046875 7.660156 -3.875 8.765625 -3.875 C 10.859375 -3.875 11.90625 -4.394531 11.90625 -5.4375 C 11.90625 -6 11.601562 -6.410156 11 -6.671875 C 10.40625 -6.941406 9.445312 -7.222656 8.125 -7.515625 C 6.664062 -7.828125 5.445312 -8.160156 4.46875 -8.515625 C 3.5 -8.878906 2.660156 -9.457031 1.953125 -10.25 C 1.253906 -11.039062 0.90625 -12.113281 0.90625 -13.46875 C 0.90625 -14.644531 1.226562 -15.707031 1.875 -16.65625 C 2.519531 -17.601562 3.484375 -18.351562 4.765625 -18.90625 C 6.046875 -19.457031 7.617188 -19.734375 9.484375 -19.734375 C 10.753906 -19.734375 12.003906 -19.585938 13.234375 -19.296875 C 14.472656 -19.015625 15.5625 -18.597656 16.5 -18.046875 L 14.8125 -13.984375 C 12.96875 -14.984375 11.179688 -15.484375 9.453125 -15.484375 C 8.367188 -15.484375 7.578125 -15.320312 7.078125 -15 C 6.578125 -14.675781 6.328125 -14.253906 6.328125 -13.734375 C 6.328125 -13.222656 6.617188 -12.835938 7.203125 -12.578125 C 7.796875 -12.316406 8.75 -12.050781 10.0625 -11.78125 C 11.53125 -11.46875 12.75 -11.128906 13.71875 -10.765625 C 14.6875 -10.410156 15.523438 -9.835938 16.234375 -9.046875 C 16.941406 -8.265625 17.296875 -7.203125 17.296875 -5.859375 C 17.296875 -4.703125 16.972656 -3.648438 16.328125 -2.703125 C 15.691406 -1.765625 14.726562 -1.015625 13.4375 -0.453125 C 12.144531 0.109375 10.578125 0.390625 8.734375 0.390625 Z M 8.734375 0.390625 "/></g></g></g><g fill="#0b74bb" fill-opacity="1"><g transform="translate(229.224365, 239.287777)"><g><path d="M 8.734375 0.390625 C 7.171875 0.390625 5.648438 0.195312 4.171875 -0.1875 C 2.703125 -0.582031 1.503906 -1.097656 0.578125 -1.734375 L 2.375 -5.78125 C 3.238281 -5.207031 4.242188 -4.742188 5.390625 -4.390625 C 6.535156 -4.046875 7.660156 -3.875 8.765625 -3.875 C 10.859375 -3.875 11.90625 -4.394531 11.90625 -5.4375 C 11.90625 -6 11.601562 -6.410156 11 -6.671875 C 10.40625 -6.941406 9.445312 -7.222656 8.125 -7.515625 C 6.664062 -7.828125 5.445312 -8.160156 4.46875 -8.515625 C 3.5 -8.878906 2.660156 -9.457031 1.953125 -10.25 C 1.253906 -11.039062 0.90625 -12.113281 0.90625 -13.46875 C 0.90625 -14.644531 1.226562 -15.707031 1.875 -16.65625 C 2.519531 -17.601562 3.484375 -18.351562 4.765625 -18.90625 C 6.046875 -19.457031 7.617188 -19.734375 9.484375 -19.734375 C 10.753906 -19.734375 12.003906 -19.585938 13.234375 -19.296875 C 14.472656 -19.015625 15.5625 -18.597656 16.5 -18.046875 L 14.8125 -13.984375 C 12.96875 -14.984375 11.179688 -15.484375 9.453125 -15.484375 C 8.367188 -15.484375 7.578125 -15.320312 7.078125 -15 C 6.578125 -14.675781 6.328125 -14.253906 6.328125 -13.734375 C 6.328125 -13.222656 6.617188 -12.835938 7.203125 -12.578125 C 7.796875 -12.316406 8.75 -12.050781 10.0625 -11.78125 C 11.53125 -11.46875 12.75 -11.128906 13.71875 -10.765625 C 14.6875 -10.410156 15.523438 -9.835938 16.234375 -9.046875 C 16.941406 -8.265625 17.296875 -7.203125 17.296875 -5.859375 C 17.296875 -4.703125 16.972656 -3.648438 16.328125 -2.703125 C 15.691406 -1.765625 14.726562 -1.015625 13.4375 -0.453125 C 12.144531 0.109375 10.578125 0.390625 8.734375 0.390625 Z M 8.734375 0.390625 "/></g></g></g><g fill="#0b74bb" fill-opacity="1"><g transform="translate(247.102804, 239.287777)"><g/></g></g><g fill="#0b74bb" fill-opacity="1"><g transform="translate(255.14396, 239.287777)"><g><path d="M 11.578125 0.390625 C 9.554688 0.390625 7.738281 -0.0351562 6.125 -0.890625 C 4.507812 -1.753906 3.238281 -2.945312 2.3125 -4.46875 C 1.394531 -6 0.9375 -7.734375 0.9375 -9.671875 C 0.9375 -11.609375 1.394531 -13.34375 2.3125 -14.875 C 3.238281 -16.40625 4.507812 -17.597656 6.125 -18.453125 C 7.738281 -19.304688 9.554688 -19.734375 11.578125 -19.734375 C 13.347656 -19.734375 14.941406 -19.421875 16.359375 -18.796875 C 17.773438 -18.171875 18.957031 -17.269531 19.90625 -16.09375 L 16.421875 -12.9375 C 15.160156 -14.445312 13.640625 -15.203125 11.859375 -15.203125 C 10.804688 -15.203125 9.867188 -14.96875 9.046875 -14.5 C 8.234375 -14.039062 7.597656 -13.394531 7.140625 -12.5625 C 6.691406 -11.726562 6.46875 -10.765625 6.46875 -9.671875 C 6.46875 -8.585938 6.691406 -7.625 7.140625 -6.78125 C 7.597656 -5.945312 8.234375 -5.296875 9.046875 -4.828125 C 9.867188 -4.367188 10.804688 -4.140625 11.859375 -4.140625 C 13.640625 -4.140625 15.160156 -4.894531 16.421875 -6.40625 L 19.90625 -3.265625 C 18.957031 -2.085938 17.773438 -1.179688 16.359375 -0.546875 C 14.941406 0.078125 13.347656 0.390625 11.578125 0.390625 Z M 11.578125 0.390625 "/></g></g></g><g fill="#0b74bb" fill-opacity="1"><g transform="translate(275.536987, 239.287777)"><g><path d="M 14.890625 -3.765625 L 6.71875 -3.765625 L 5.203125 0 L -0.390625 0 L 8.15625 -19.34375 L 13.546875 -19.34375 L 22.109375 0 L 16.421875 0 Z M 13.296875 -7.796875 L 10.8125 -13.984375 L 8.3125 -7.796875 Z M 13.296875 -7.796875 "/></g></g></g><g fill="#0b74bb" fill-opacity="1"><g transform="translate(297.256395, 239.287777)"><g><path d="M 10.390625 -5.140625 L 7.40625 -5.140625 L 7.40625 0 L 1.9375 0 L 1.9375 -19.34375 L 10.78125 -19.34375 C 12.53125 -19.34375 14.050781 -19.050781 15.34375 -18.46875 C 16.632812 -17.894531 17.628906 -17.066406 18.328125 -15.984375 C 19.023438 -14.910156 19.375 -13.644531 19.375 -12.1875 C 19.375 -10.789062 19.046875 -9.570312 18.390625 -8.53125 C 17.734375 -7.488281 16.800781 -6.671875 15.59375 -6.078125 L 19.765625 0 L 13.90625 0 Z M 13.84375 -12.1875 C 13.84375 -13.09375 13.554688 -13.789062 12.984375 -14.28125 C 12.421875 -14.78125 11.578125 -15.03125 10.453125 -15.03125 L 7.40625 -15.03125 L 7.40625 -9.375 L 10.453125 -9.375 C 11.578125 -9.375 12.421875 -9.613281 12.984375 -10.09375 C 13.554688 -10.582031 13.84375 -11.28125 13.84375 -12.1875 Z M 13.84375 -12.1875 "/></g></g></g><g fill="#0b74bb" fill-opacity="1"><g transform="translate(317.704686, 239.287777)"><g><path d="M 17.46875 -4.234375 L 17.46875 0 L 1.9375 0 L 1.9375 -19.34375 L 17.109375 -19.34375 L 17.109375 -15.125 L 7.359375 -15.125 L 7.359375 -11.859375 L 15.953125 -11.859375 L 15.953125 -7.765625 L 7.359375 -7.765625 L 7.359375 -4.234375 Z M 17.46875 -4.234375 "/></g></g></g></svg>